{
  "asset": {
    "generator": "Khronos glTF Blender I/O v3.6.27",
    "version": "2.0"
  },
  "scene": 0,
  "scenes": [
    {
      "name": "Scene",
      "nodes": [
        0
      ]
    }
  ],
  "nodes": [
    {
      "mesh": 0,
      "name": "rusted_wheel_rim_01"
    }
  ],
  "materials": [
    {
      "doubleSided": true,
      "name": "rusted_wheel_rim_01",
      "normalTexture": {
        "index": 0
      },
      "pbrMetallicRoughness": {
        "baseColorTexture": {
          "index": 1
        },
        "metallicFactor": 0,
        "metallicRoughnessTexture": {
          "index": 2
        }
      }
    }
  ],
  "meshes": [
    {
      "extras": {
        "targetNames": [
          "Key 1"
        ]
      },
      "name": "steel_wheel_01_1",
      "primitives": [
        {
          "attributes": {
            "POSITION": 0,
            "NORMAL": 1,
            "TEXCOORD_0": 2
          },
          "indices": 3,
          "material": 0,
          "targets": [
            {
              "POSITION": 4,
              "NORMAL": 5
            }
          ]
        }
      ],
      "weights": [
        1
      ]
    }
  ],
  "textures": [
    {
      "sampler": 0,
      "source": 0
    },
    {
      "sampler": 0,
      "source": 1
    },
    {
      "sampler": 0,
      "source": 2
    }
  ],
  "images": [
    {
      "mimeType": "image/jpeg",
      "name": "rusted_wheel_rim_01_nor_gl",
      "uri": "textures/rusted_wheel_rim_01_nor_gl_1k.jpg"
    },
    {
      "mimeType": "image/jpeg",
      "name": "rusted_wheel_rim_01_diff",
      "uri": "textures/rusted_wheel_rim_01_diff_1k.jpg"
    },
    {
      "mimeType": "image/jpeg",
      "name": "rusted_wheel_rim_01_rough",
      "uri": "textures/rusted_wheel_rim_01_arm_1k.jpg"
    }
  ],
  "accessors": [
    {
      "bufferView": 0,
      "componentType": 5126,
      "count": 9918,
      "max": [
        0.20245464146137238,
        0.202455535531044,
        0.07501684874296188
      ],
      "min": [
        -0.20245464146137238,
        -0.202455535531044,
        -0.07501685619354248
      ],
      "type": "VEC3"
    },
    {
      "bufferView": 1,
      "componentType": 5126,
      "count": 9918,
      "type": "VEC3"
    },
    {
      "bufferView": 2,
      "componentType": 5126,
      "count": 9918,
      "type": "VEC2"
    },
    {
      "bufferView": 3,
      "componentType": 5123,
      "count": 49320,
      "type": "SCALAR"
    },
    {
      "bufferView": 4,
      "componentType": 5126,
      "count": 9918,
      "max": [
        0.00026047229766845703,
        0.018360331654548645,
        0.0017739683389663696
      ],
      "min": [
        -0.012896761298179626,
        -0.012727975845336914,
        -0.002330109477043152
      ],
      "type": "VEC3"
    },
    {
      "bufferView": 5,
      "componentType": 5126,
      "count": 9918,
      "type": "VEC3"
    }
  ],
  "bufferViews": [
    {
      "buffer": 0,
      "byteLength": 119016,
      "byteOffset": 0,
      "target": 34962
    },
    {
      "buffer": 0,
      "byteLength": 119016,
      "byteOffset": 119016,
      "target": 34962
    },
    {
      "buffer": 0,
      "byteLength": 79344,
      "byteOffset": 238032,
      "target": 34962
    },
    {
      "buffer": 0,
      "byteLength": 98640,
      "byteOffset": 317376,
      "target": 34963
    },
    {
      "buffer": 0,
      "byteLength": 119016,
      "byteOffset": 416016,
      "target": 34962
    },
    {
      "buffer": 0,
      "byteLength": 119016,
      "byteOffset": 535032,
      "target": 34962
    }
  ],
  "samplers": [
    {
      "magFilter": 9729,
      "minFilter": 9987
    }
  ],
  "buffers": [
    {
      "byteLength": 654048,
      "uri": "rusted_wheel_rim_01.bin"
    }
  ]
}