{
  "asset": {
    "generator": "Khronos glTF Blender I/O v1.6.8",
    "version": "2.0"
  },
  "extensionsUsed": [
    "KHR_texture_transform"
  ],
  "extensionsRequired": [
    "KHR_texture_transform"
  ],
  "scene": 0,
  "scenes": [
    {
      "name": "Scene",
      "nodes": [
        0
      ]
    }
  ],
  "nodes": [
    {
      "mesh": 0,
      "name": "sphere_gltf.001"
    }
  ],
  "materials": [
    {
      "doubleSided": true,
      "name": "concrete_floor_02",
      "normalTexture": {
        "extensions": {
          "KHR_texture_transform": {
            "offset": [
              0,
              -1
            ],
            "scale": [
              2,
              2
            ]
          }
        },
        "index": 0
      },
      "pbrMetallicRoughness": {
        "baseColorTexture": {
          "extensions": {
            "KHR_texture_transform": {
              "offset": [
                0,
                -1
              ],
              "scale": [
                2,
                2
              ]
            }
          },
          "index": 1
        },
        "metallicFactor": 0,
        "metallicRoughnessTexture": {
          "extensions": {
            "KHR_texture_transform": {
              "offset": [
                0,
                -1
              ],
              "scale": [
                2,
                2
              ]
            }
          },
          "index": 2
        }
      }
    }
  ],
  "meshes": [
    {
      "name": "Sphere.002",
      "primitives": [
        {
          "attributes": {
            "POSITION": 0,
            "NORMAL": 1,
            "TEXCOORD_0": 2
          },
          "indices": 3,
          "material": 0
        }
      ]
    }
  ],
  "textures": [
    {
      "sampler": 0,
      "source": 0
    },
    {
      "sampler": 0,
      "source": 1
    },
    {
      "sampler": 0,
      "source": 2
    }
  ],
  "images": [
    {
      "mimeType": "image/jpeg",
      "name": "concrete_floor_02_nor_gl_4k",
      "uri": "textures/concrete_floor_02_nor_gl_1k.jpg"
    },
    {
      "mimeType": "image/jpeg",
      "name": "concrete_floor_02_diff_4k",
      "uri": "textures/concrete_floor_02_diff_1k.jpg"
    },
    {
      "mimeType": "image/jpeg",
      "name": "concrete_floor_02_rough_4k",
      "uri": "textures/concrete_floor_02_rough_1k.jpg"
    }
  ],
  "accessors": [
    {
      "bufferView": 0,
      "componentType": 5126,
      "count": 53913,
      "max": [
        0.9961161017417908,
        1.003219723701477,
        1.0046526193618774
      ],
      "min": [
        -0.9961161613464355,
        -1.002431869506836,
        -1.0046554803848267
      ],
      "type": "VEC3"
    },
    {
      "bufferView": 1,
      "componentType": 5126,
      "count": 53913,
      "type": "VEC3"
    },
    {
      "bufferView": 2,
      "componentType": 5126,
      "count": 53913,
      "type": "VEC2"
    },
    {
      "bufferView": 3,
      "componentType": 5123,
      "count": 322170,
      "type": "SCALAR"
    }
  ],
  "bufferViews": [
    {
      "buffer": 0,
      "byteLength": 646956,
      "byteOffset": 0
    },
    {
      "buffer": 0,
      "byteLength": 646956,
      "byteOffset": 646956
    },
    {
      "buffer": 0,
      "byteLength": 431304,
      "byteOffset": 1293912
    },
    {
      "buffer": 0,
      "byteLength": 644340,
      "byteOffset": 1725216
    }
  ],
  "samplers": [
    {
      "magFilter": 9729,
      "minFilter": 9987
    }
  ],
  "buffers": [
    {
      "byteLength": 2369556,
      "uri": "concrete_floor_02.bin"
    }
  ]
}